<svg width="69" height="75" viewBox="0 0 69 75" fill="none" xmlns="http://www.w3.org/2000/svg">
<path d="M60.2447 12.0606L43.4413 2.38114C37.9433 -0.793713 31.2065 -0.793713 25.7086 2.38114L8.82763 12.0606C3.40716 15.2354 0 21.1205 0 27.3928V46.8291C0 53.1788 3.40716 58.9864 8.82763 62.1613L25.6311 71.9181C31.129 75.093 37.8659 75.093 43.3638 71.9181L60.1673 62.1613C65.6652 58.9864 68.9949 53.1788 68.9949 46.8291V27.3928C69.1498 21.1205 65.7427 15.2354 60.2447 12.0606ZM34.5362 54.4177C25.0116 54.4177 17.2681 46.6742 17.2681 37.1496C17.2681 27.6251 25.0116 19.8815 34.5362 19.8815C44.0607 19.8815 51.8817 27.6251 51.8817 37.1496C51.8817 46.6742 44.1382 54.4177 34.5362 54.4177Z" fill="#F3F3F6"/>
</svg>
